<svg width="840" height="200" viewBox="0 0 840 200" fill="none" xmlns="http://www.w3.org/2000/svg">
<path d="M241.5 74.8C245.148 74.8 248.391 75.484 251.228 76.852C254.065 78.22 256.447 80.1453 258.372 82.628C260.348 85.06 261.817 87.8973 262.78 91.14C263.793 94.332 264.3 97.752 264.3 101.4C264.3 106.315 263.413 110.799 261.64 114.852C259.867 118.855 257.283 122.047 253.888 124.428C250.544 126.809 246.415 128 241.5 128H223.336C222.019 128 220.904 127.569 219.992 126.708C219.131 125.796 218.7 124.681 218.7 123.364V79.436C218.7 78.1187 219.131 77.0293 219.992 76.168C220.904 75.256 222.019 74.8 223.336 74.8H241.5ZM240.74 119.26C243.932 119.26 246.541 118.449 248.568 116.828C250.595 115.156 252.064 112.977 252.976 110.292C253.939 107.556 254.42 104.592 254.42 101.4C254.42 99.0187 254.141 96.764 253.584 94.636C253.077 92.4573 252.267 90.5573 251.152 88.936C250.037 87.264 248.619 85.9467 246.896 84.984C245.173 84.0213 243.121 83.54 240.74 83.54H227.44L228.2 82.856V120.096L227.744 119.26H240.74ZM292.014 128.76C287.707 128.76 283.958 127.873 280.766 126.1C277.625 124.276 275.193 121.819 273.47 118.728C271.798 115.637 270.962 112.141 270.962 108.24C270.962 103.68 271.874 99.804 273.698 96.612C275.573 93.3693 278.005 90.8867 280.994 89.164C283.983 87.4413 287.15 86.58 290.494 86.58C293.078 86.58 295.51 87.112 297.79 88.176C300.121 89.24 302.173 90.7093 303.946 92.584C305.719 94.408 307.113 96.536 308.126 98.968C309.19 101.4 309.722 103.984 309.722 106.72C309.671 107.936 309.19 108.924 308.278 109.684C307.366 110.444 306.302 110.824 305.086 110.824H276.054L273.774 103.224H301.666L299.994 104.744V102.692C299.893 101.223 299.361 99.9053 298.398 98.74C297.486 97.5747 296.321 96.6627 294.902 96.004C293.534 95.2947 292.065 94.94 290.494 94.94C288.974 94.94 287.555 95.1427 286.238 95.548C284.921 95.9533 283.781 96.6373 282.818 97.6C281.855 98.5627 281.095 99.8547 280.538 101.476C279.981 103.097 279.702 105.149 279.702 107.632C279.702 110.368 280.259 112.699 281.374 114.624C282.539 116.499 284.009 117.943 285.782 118.956C287.606 119.919 289.531 120.4 291.558 120.4C293.433 120.4 294.927 120.248 296.042 119.944C297.157 119.64 298.043 119.285 298.702 118.88C299.411 118.424 300.045 118.044 300.602 117.74C301.514 117.284 302.375 117.056 303.186 117.056C304.301 117.056 305.213 117.436 305.922 118.196C306.682 118.956 307.062 119.843 307.062 120.856C307.062 122.224 306.353 123.465 304.934 124.58C303.617 125.695 301.767 126.683 299.386 127.544C297.005 128.355 294.547 128.76 292.014 128.76ZM339.426 86.58C343.175 86.58 346.013 87.3653 347.938 88.936C349.914 90.5067 351.257 92.6093 351.966 95.244C352.726 97.828 353.106 100.716 353.106 103.908V123.364C353.106 124.681 352.675 125.796 351.814 126.708C350.953 127.569 349.863 128 348.546 128C347.229 128 346.139 127.569 345.278 126.708C344.417 125.796 343.986 124.681 343.986 123.364V103.908C343.986 102.236 343.758 100.741 343.302 99.424C342.897 98.056 342.137 96.9667 341.022 96.156C339.907 95.3453 338.311 94.94 336.234 94.94C334.207 94.94 332.485 95.3453 331.066 96.156C329.698 96.9667 328.634 98.056 327.874 99.424C327.165 100.741 326.81 102.236 326.81 103.908V123.364C326.81 124.681 326.379 125.796 325.518 126.708C324.657 127.569 323.567 128 322.25 128C320.933 128 319.843 127.569 318.982 126.708C318.121 125.796 317.69 124.681 317.69 123.364V91.976C317.69 90.6587 318.121 89.5693 318.982 88.708C319.843 87.796 320.933 87.34 322.25 87.34C323.567 87.34 324.657 87.796 325.518 88.708C326.379 89.5693 326.81 90.6587 326.81 91.976V95.244L325.67 95.016C326.126 94.1547 326.785 93.2427 327.646 92.28C328.507 91.2667 329.521 90.3293 330.686 89.468C331.851 88.6067 333.169 87.9227 334.638 87.416C336.107 86.8587 337.703 86.58 339.426 86.58ZM360.607 121.692C360.101 120.983 359.873 120.071 359.923 118.956C359.974 117.841 360.633 116.879 361.899 116.068C362.71 115.561 363.571 115.359 364.483 115.46C365.395 115.511 366.282 115.967 367.143 116.828C368.613 118.297 370.158 119.437 371.779 120.248C373.401 121.059 375.427 121.464 377.859 121.464C378.619 121.413 379.455 121.312 380.367 121.16C381.279 120.957 382.065 120.552 382.723 119.944C383.433 119.285 383.787 118.297 383.787 116.98C383.787 115.865 383.407 114.979 382.647 114.32C381.887 113.661 380.874 113.104 379.607 112.648C378.391 112.192 377.023 111.761 375.503 111.356C373.933 110.9 372.311 110.393 370.639 109.836C369.018 109.279 367.523 108.569 366.155 107.708C364.787 106.796 363.673 105.605 362.811 104.136C361.95 102.667 361.519 100.817 361.519 98.588C361.519 96.0547 362.229 93.9013 363.647 92.128C365.066 90.3547 366.89 88.9867 369.119 88.024C371.399 87.0613 373.781 86.58 376.263 86.58C377.834 86.58 379.481 86.7827 381.203 87.188C382.926 87.5427 384.573 88.1507 386.143 89.012C387.714 89.8227 389.031 90.912 390.095 92.28C390.653 93.04 390.982 93.952 391.083 95.016C391.185 96.08 390.703 97.0427 389.639 97.904C388.879 98.512 387.993 98.7907 386.979 98.74C385.966 98.6387 385.13 98.284 384.471 97.676C383.61 96.5613 382.445 95.6747 380.975 95.016C379.557 94.3573 377.91 94.028 376.035 94.028C375.275 94.028 374.439 94.1293 373.527 94.332C372.666 94.484 371.906 94.864 371.247 95.472C370.589 96.0293 370.259 96.9413 370.259 98.208C370.259 99.3733 370.639 100.311 371.399 101.02C372.159 101.679 373.173 102.236 374.439 102.692C375.757 103.097 377.15 103.503 378.619 103.908C380.139 104.313 381.685 104.795 383.255 105.352C384.826 105.909 386.27 106.644 387.587 107.556C388.905 108.468 389.969 109.659 390.779 111.128C391.59 112.547 391.995 114.371 391.995 116.6C391.995 119.184 391.235 121.388 389.715 123.212C388.195 125.036 386.295 126.429 384.015 127.392C381.735 128.304 379.405 128.76 377.023 128.76C374.034 128.76 371.045 128.253 368.055 127.24C365.066 126.176 362.583 124.327 360.607 121.692ZM418.78 128.76C414.473 128.76 410.724 127.873 407.532 126.1C404.39 124.276 401.958 121.819 400.236 118.728C398.564 115.637 397.728 112.141 397.728 108.24C397.728 103.68 398.64 99.804 400.464 96.612C402.338 93.3693 404.77 90.8867 407.76 89.164C410.749 87.4413 413.916 86.58 417.26 86.58C419.844 86.58 422.276 87.112 424.556 88.176C426.886 89.24 428.938 90.7093 430.712 92.584C432.485 94.408 433.878 96.536 434.892 98.968C435.956 101.4 436.488 103.984 436.488 106.72C436.437 107.936 435.956 108.924 435.044 109.684C434.132 110.444 433.068 110.824 431.852 110.824H402.82L400.54 103.224H428.432L426.76 104.744V102.692C426.658 101.223 426.126 99.9053 425.164 98.74C424.252 97.5747 423.086 96.6627 421.668 96.004C420.3 95.2947 418.83 94.94 417.26 94.94C415.74 94.94 414.321 95.1427 413.004 95.548C411.686 95.9533 410.546 96.6373 409.584 97.6C408.621 98.5627 407.861 99.8547 407.304 101.476C406.746 103.097 406.468 105.149 406.468 107.632C406.468 110.368 407.025 112.699 408.14 114.624C409.305 116.499 410.774 117.943 412.548 118.956C414.372 119.919 416.297 120.4 418.324 120.4C420.198 120.4 421.693 120.248 422.808 119.944C423.922 119.64 424.809 119.285 425.468 118.88C426.177 118.424 426.81 118.044 427.368 117.74C428.28 117.284 429.141 117.056 429.952 117.056C431.066 117.056 431.978 117.436 432.688 118.196C433.448 118.956 433.828 119.843 433.828 120.856C433.828 122.224 433.118 123.465 431.7 124.58C430.382 125.695 428.533 126.683 426.152 127.544C423.77 128.355 421.313 128.76 418.78 128.76ZM449.016 128C447.698 128 446.609 127.569 445.748 126.708C444.886 125.796 444.456 124.681 444.456 123.364V91.976C444.456 90.6587 444.886 89.5693 445.748 88.708C446.609 87.796 447.698 87.34 449.016 87.34C450.333 87.34 451.422 87.796 452.284 88.708C453.145 89.5693 453.576 90.6587 453.576 91.976V99.12L453.044 94.028C453.601 92.812 454.31 91.748 455.172 90.836C456.084 89.8733 457.097 89.088 458.212 88.48C459.326 87.8213 460.517 87.34 461.784 87.036C463.05 86.732 464.317 86.58 465.584 86.58C467.104 86.58 468.37 87.0107 469.384 87.872C470.448 88.7333 470.98 89.7467 470.98 90.912C470.98 92.584 470.549 93.8 469.688 94.56C468.826 95.2693 467.889 95.624 466.876 95.624C465.913 95.624 465.026 95.4467 464.216 95.092C463.456 94.7373 462.569 94.56 461.556 94.56C460.644 94.56 459.706 94.788 458.744 95.244C457.832 95.6493 456.97 96.308 456.16 97.22C455.4 98.132 454.766 99.272 454.26 100.64C453.804 101.957 453.576 103.528 453.576 105.352V123.364C453.576 124.681 453.145 125.796 452.284 126.708C451.422 127.569 450.333 128 449.016 128ZM483.641 128C482.222 128 480.955 127.569 479.841 126.708C478.726 125.796 478.169 124.681 478.169 123.364V79.436C478.169 78.1187 478.599 77.0293 479.461 76.168C480.373 75.256 481.487 74.8 482.805 74.8H504.693C507.327 74.8 509.785 75.5093 512.065 76.928C514.395 78.296 516.27 80.2213 517.689 82.704C519.107 85.136 519.817 87.948 519.817 91.14C519.817 93.0653 519.411 94.94 518.601 96.764C517.841 98.588 516.777 100.235 515.409 101.704C514.091 103.173 512.597 104.313 510.925 105.124L511.001 103.376C512.419 104.136 513.585 105.048 514.497 106.112C515.459 107.125 516.194 108.24 516.701 109.456C517.258 110.621 517.587 111.888 517.689 113.256C517.891 114.523 518.018 115.637 518.069 116.6C518.17 117.563 518.322 118.373 518.525 119.032C518.778 119.691 519.234 120.197 519.893 120.552C521.007 121.211 521.691 122.173 521.945 123.44C522.249 124.656 521.97 125.745 521.109 126.708C520.551 127.367 519.842 127.797 518.981 128C518.119 128.152 517.258 128.152 516.397 128C515.535 127.797 514.826 127.544 514.269 127.24C513.407 126.733 512.546 125.999 511.685 125.036C510.823 124.023 510.114 122.68 509.557 121.008C509.05 119.336 508.797 117.183 508.797 114.548C508.797 113.687 508.645 112.901 508.341 112.192C508.037 111.432 507.606 110.799 507.049 110.292C506.491 109.735 505.782 109.329 504.921 109.076C504.059 108.772 503.046 108.62 501.881 108.62H486.529L487.669 106.872V123.364C487.669 124.681 487.314 125.796 486.605 126.708C485.895 127.569 484.907 128 483.641 128ZM486.605 100.792H504.313C505.225 100.792 506.111 100.387 506.973 99.576C507.834 98.7147 508.543 97.5747 509.101 96.156C509.658 94.6867 509.937 93.0907 509.937 91.368C509.937 89.1387 509.329 87.2893 508.113 85.82C506.947 84.3 505.681 83.54 504.313 83.54H486.757L487.669 81.108V102.616L486.605 100.792ZM548.365 128.76C544.059 128.76 540.309 127.873 537.117 126.1C533.976 124.276 531.544 121.819 529.821 118.728C528.149 115.637 527.313 112.141 527.313 108.24C527.313 103.68 528.225 99.804 530.049 96.612C531.924 93.3693 534.356 90.8867 537.345 89.164C540.335 87.4413 543.501 86.58 546.845 86.58C549.429 86.58 551.861 87.112 554.141 88.176C556.472 89.24 558.524 90.7093 560.297 92.584C562.071 94.408 563.464 96.536 564.477 98.968C565.541 101.4 566.073 103.984 566.073 106.72C566.023 107.936 565.541 108.924 564.629 109.684C563.717 110.444 562.653 110.824 561.437 110.824H532.405L530.125 103.224H558.017L556.345 104.744V102.692C556.244 101.223 555.712 99.9053 554.749 98.74C553.837 97.5747 552.672 96.6627 551.253 96.004C549.885 95.2947 548.416 94.94 546.845 94.94C545.325 94.94 543.907 95.1427 542.589 95.548C541.272 95.9533 540.132 96.6373 539.169 97.6C538.207 98.5627 537.447 99.8547 536.889 101.476C536.332 103.097 536.053 105.149 536.053 107.632C536.053 110.368 536.611 112.699 537.725 114.624C538.891 116.499 540.36 117.943 542.133 118.956C543.957 119.919 545.883 120.4 547.909 120.4C549.784 120.4 551.279 120.248 552.393 119.944C553.508 119.64 554.395 119.285 555.053 118.88C555.763 118.424 556.396 118.044 556.953 117.74C557.865 117.284 558.727 117.056 559.537 117.056C560.652 117.056 561.564 117.436 562.273 118.196C563.033 118.956 563.413 119.843 563.413 120.856C563.413 122.224 562.704 123.465 561.285 124.58C559.968 125.695 558.119 126.683 555.737 127.544C553.356 128.355 550.899 128.76 548.365 128.76ZM574.498 88.1H592.51C593.726 88.1 594.739 88.5053 595.55 89.316C596.36 90.1267 596.766 91.14 596.766 92.356C596.766 93.5213 596.36 94.5093 595.55 95.32C594.739 96.08 593.726 96.46 592.51 96.46H574.498C573.282 96.46 572.268 96.0547 571.458 95.244C570.647 94.4333 570.242 93.42 570.242 92.204C570.242 91.0387 570.647 90.076 571.458 89.316C572.268 88.5053 573.282 88.1 574.498 88.1ZM582.63 78.6C583.947 78.6 585.011 79.056 585.822 79.968C586.683 80.8293 587.114 81.9187 587.114 83.236V117.056C587.114 117.765 587.24 118.348 587.494 118.804C587.798 119.26 588.178 119.589 588.634 119.792C589.14 119.995 589.672 120.096 590.23 120.096C590.838 120.096 591.395 119.995 591.902 119.792C592.408 119.539 592.991 119.412 593.65 119.412C594.359 119.412 594.992 119.741 595.55 120.4C596.158 121.059 596.462 121.971 596.462 123.136C596.462 124.555 595.676 125.72 594.106 126.632C592.586 127.544 590.939 128 589.166 128C588.102 128 586.911 127.924 585.594 127.772C584.327 127.569 583.111 127.139 581.946 126.48C580.831 125.771 579.894 124.707 579.134 123.288C578.374 121.869 577.994 119.919 577.994 117.436V83.236C577.994 81.9187 578.424 80.8293 579.286 79.968C580.198 79.056 581.312 78.6 582.63 78.6ZM609.699 128C608.382 128 607.293 127.569 606.431 126.708C605.57 125.796 605.139 124.681 605.139 123.364V91.976C605.139 90.6587 605.57 89.5693 606.431 88.708C607.293 87.796 608.382 87.34 609.699 87.34C611.017 87.34 612.106 87.796 612.967 88.708C613.829 89.5693 614.259 90.6587 614.259 91.976V99.12L613.727 94.028C614.285 92.812 614.994 91.748 615.855 90.836C616.767 89.8733 617.781 89.088 618.895 88.48C620.01 87.8213 621.201 87.34 622.467 87.036C623.734 86.732 625.001 86.58 626.267 86.58C627.787 86.58 629.054 87.0107 630.067 87.872C631.131 88.7333 631.663 89.7467 631.663 90.912C631.663 92.584 631.233 93.8 630.371 94.56C629.51 95.2693 628.573 95.624 627.559 95.624C626.597 95.624 625.71 95.4467 624.899 95.092C624.139 94.7373 623.253 94.56 622.239 94.56C621.327 94.56 620.39 94.788 619.427 95.244C618.515 95.6493 617.654 96.308 616.843 97.22C616.083 98.132 615.45 99.272 614.943 100.64C614.487 101.957 614.259 103.528 614.259 105.352V123.364C614.259 124.681 613.829 125.796 612.967 126.708C612.106 127.569 611.017 128 609.699 128ZM646.68 123.364C646.68 124.681 646.25 125.796 645.388 126.708C644.527 127.569 643.438 128 642.12 128C640.803 128 639.714 127.569 638.852 126.708C637.991 125.796 637.56 124.681 637.56 123.364V91.976C637.56 90.6587 637.991 89.5693 638.852 88.708C639.714 87.796 640.803 87.34 642.12 87.34C643.438 87.34 644.527 87.796 645.388 88.708C646.25 89.5693 646.68 90.6587 646.68 91.976V123.364ZM642.044 82.4C640.322 82.4 639.106 82.1213 638.396 81.564C637.687 81.0067 637.332 80.0187 637.332 78.6V77.156C637.332 75.6867 637.712 74.6987 638.472 74.192C639.283 73.6347 640.499 73.356 642.12 73.356C643.894 73.356 645.135 73.6347 645.844 74.192C646.554 74.7493 646.908 75.7373 646.908 77.156V78.6C646.908 80.0693 646.528 81.0827 645.768 81.64C645.008 82.1467 643.767 82.4 642.044 82.4ZM675.205 128.76C670.899 128.76 667.149 127.873 663.957 126.1C660.816 124.276 658.384 121.819 656.661 118.728C654.989 115.637 654.153 112.141 654.153 108.24C654.153 103.68 655.065 99.804 656.889 96.612C658.764 93.3693 661.196 90.8867 664.185 89.164C667.175 87.4413 670.341 86.58 673.685 86.58C676.269 86.58 678.701 87.112 680.981 88.176C683.312 89.24 685.364 90.7093 687.137 92.584C688.911 94.408 690.304 96.536 691.317 98.968C692.381 101.4 692.913 103.984 692.913 106.72C692.863 107.936 692.381 108.924 691.469 109.684C690.557 110.444 689.493 110.824 688.277 110.824H659.245L656.965 103.224H684.857L683.185 104.744V102.692C683.084 101.223 682.552 99.9053 681.589 98.74C680.677 97.5747 679.512 96.6627 678.093 96.004C676.725 95.2947 675.256 94.94 673.685 94.94C672.165 94.94 670.747 95.1427 669.429 95.548C668.112 95.9533 666.972 96.6373 666.009 97.6C665.047 98.5627 664.287 99.8547 663.729 101.476C663.172 103.097 662.893 105.149 662.893 107.632C662.893 110.368 663.451 112.699 664.565 114.624C665.731 116.499 667.2 117.943 668.973 118.956C670.797 119.919 672.723 120.4 674.749 120.4C676.624 120.4 678.119 120.248 679.233 119.944C680.348 119.64 681.235 119.285 681.893 118.88C682.603 118.424 683.236 118.044 683.793 117.74C684.705 117.284 685.567 117.056 686.377 117.056C687.492 117.056 688.404 117.436 689.113 118.196C689.873 118.956 690.253 119.843 690.253 120.856C690.253 122.224 689.544 123.465 688.125 124.58C686.808 125.695 684.959 126.683 682.577 127.544C680.196 128.355 677.739 128.76 675.205 128.76ZM702.334 87.34C703.297 87.34 704.184 87.5933 704.994 88.1C705.805 88.556 706.413 89.2653 706.818 90.228L717.99 115.764L716.318 116.524L727.718 90.304C728.58 88.2773 729.922 87.3147 731.746 87.416C733.013 87.416 734.026 87.8213 734.786 88.632C735.597 89.392 736.002 90.3547 736.002 91.52C736.002 91.8747 735.926 92.2547 735.774 92.66C735.673 93.0653 735.546 93.4453 735.394 93.8L721.182 125.112C720.372 126.936 719.08 127.899 717.306 128C716.344 128.152 715.406 127.975 714.494 127.468C713.633 126.961 712.974 126.176 712.518 125.112L698.382 93.8C698.281 93.5467 698.154 93.2173 698.002 92.812C697.901 92.4067 697.85 91.9253 697.85 91.368C697.85 90.456 698.256 89.5693 699.066 88.708C699.877 87.796 700.966 87.34 702.334 87.34ZM761.967 128.76C757.66 128.76 753.911 127.873 750.719 126.1C747.578 124.276 745.146 121.819 743.423 118.728C741.751 115.637 740.915 112.141 740.915 108.24C740.915 103.68 741.827 99.804 743.651 96.612C745.526 93.3693 747.958 90.8867 750.947 89.164C753.936 87.4413 757.103 86.58 760.447 86.58C763.031 86.58 765.463 87.112 767.743 88.176C770.074 89.24 772.126 90.7093 773.899 92.584C775.672 94.408 777.066 96.536 778.079 98.968C779.143 101.4 779.675 103.984 779.675 106.72C779.624 107.936 779.143 108.924 778.231 109.684C777.319 110.444 776.255 110.824 775.039 110.824H746.007L743.727 103.224H771.619L769.947 104.744V102.692C769.846 101.223 769.314 99.9053 768.351 98.74C767.439 97.5747 766.274 96.6627 764.855 96.004C763.487 95.2947 762.018 94.94 760.447 94.94C758.927 94.94 757.508 95.1427 756.191 95.548C754.874 95.9533 753.734 96.6373 752.771 97.6C751.808 98.5627 751.048 99.8547 750.491 101.476C749.934 103.097 749.655 105.149 749.655 107.632C749.655 110.368 750.212 112.699 751.327 114.624C752.492 116.499 753.962 117.943 755.735 118.956C757.559 119.919 759.484 120.4 761.511 120.4C763.386 120.4 764.88 120.248 765.995 119.944C767.11 119.64 767.996 119.285 768.655 118.88C769.364 118.424 769.998 118.044 770.555 117.74C771.467 117.284 772.328 117.056 773.139 117.056C774.254 117.056 775.166 117.436 775.875 118.196C776.635 118.956 777.015 119.843 777.015 120.856C777.015 122.224 776.306 123.465 774.887 124.58C773.57 125.695 771.72 126.683 769.339 127.544C766.958 128.355 764.5 128.76 761.967 128.76ZM792.203 128C790.886 128 789.796 127.569 788.935 126.708C788.074 125.796 787.643 124.681 787.643 123.364V91.976C787.643 90.6587 788.074 89.5693 788.935 88.708C789.796 87.796 790.886 87.34 792.203 87.34C793.52 87.34 794.61 87.796 795.471 88.708C796.332 89.5693 796.763 90.6587 796.763 91.976V99.12L796.231 94.028C796.788 92.812 797.498 91.748 798.359 90.836C799.271 89.8733 800.284 89.088 801.399 88.48C802.514 87.8213 803.704 87.34 804.971 87.036C806.238 86.732 807.504 86.58 808.771 86.58C810.291 86.58 811.558 87.0107 812.571 87.872C813.635 88.7333 814.167 89.7467 814.167 90.912C814.167 92.584 813.736 93.8 812.875 94.56C812.014 95.2693 811.076 95.624 810.063 95.624C809.1 95.624 808.214 95.4467 807.403 95.092C806.643 94.7373 805.756 94.56 804.743 94.56C803.831 94.56 802.894 94.788 801.931 95.244C801.019 95.6493 800.158 96.308 799.347 97.22C798.587 98.132 797.954 99.272 797.447 100.64C796.991 101.957 796.763 103.528 796.763 105.352V123.364C796.763 124.681 796.332 125.796 795.471 126.708C794.61 127.569 793.52 128 792.203 128Z" fill="black"/>
<path d="M164.495 99.7182C174.85 103.731 184.356 110.707 185.877 119.771C187.467 128.808 181.071 139.933 171.825 148.25C162.58 156.566 150.484 162.074 136.282 163.807C122.012 165.568 105.544 163.524 100.713 155.408C95.9285 147.206 102.804 132.991 109.94 121.713C117.007 110.462 124.427 102.18 133.716 98.5053C143.005 94.8307 154.163 95.7638 164.495 99.7182Z" fill="#E41E3D"/>
<path d="M177.198 61.4693C174.926 69.3429 170.15 77.0513 164.924 79.115C159.683 81.2082 153.992 77.6567 151.867 70.5413C149.723 63.4153 151.16 52.6961 156.26 46.6077C161.38 40.53 170.179 39.0537 174.701 42.3201C179.224 45.5865 179.471 53.5957 177.198 61.4693Z" fill="#E41E3D"/>
<path d="M50.8429 128.617C53.2229 122.801 62.1594 119.531 72.0573 119.514C81.9592 119.55 92.8708 122.78 94.3308 128.757C95.7666 134.764 87.771 143.436 79.9332 147.611C72.0954 151.786 64.4396 151.435 58.5356 147.064C52.6355 142.744 48.4589 134.381 50.8429 128.617Z" fill="#FFBA13"/>
<path d="M104.999 95.2828C104.239 102.369 91.1666 105.929 78.8268 104.657C66.487 103.384 54.8403 97.342 50.4659 89.6675C46.0486 81.9667 48.8842 72.6654 55.5114 68.6268C62.0762 64.5935 72.495 65.8176 83.4053 71.7118C94.3157 77.606 105.803 88.2231 104.999 95.2828Z" fill="#E41E3D"/>
<path d="M130.271 34.4878C138.174 42.4435 140.585 56.736 138.731 67.9069C136.85 79.0961 130.704 87.1058 123.208 85.3907C115.685 83.6939 106.865 72.2357 102.009 60.2647C97.2062 48.3148 96.4214 35.9311 102.725 30.4908C109.003 25.0687 122.369 26.59 130.271 34.4878Z" fill="#E41E3D"/>
</svg>
